<?xml version="1.0" encoding="utf-8"?>
<!-- Generator: Adobe Illustrator 15.0.0, SVG Export Plug-In  -->
<!DOCTYPE svg PUBLIC "-//W3C//DTD SVG 1.1//EN" "http://www.w3.org/Graphics/SVG/1.1/DTD/svg11.dtd" [
	<!ENTITY ns_flows "http://ns.adobe.com/Flows/1.0/">
]>
<svg version="1.1"
	 xmlns="http://www.w3.org/2000/svg" xmlns:xlink="http://www.w3.org/1999/xlink" xmlns:a="http://ns.adobe.com/AdobeSVGViewerExtensions/3.0/"
	 x="0px" y="0px" width="581px" height="298px" viewBox="0 0 581 298" overflow="visible" enable-background="new 0 0 581 298"
	 xml:space="preserve">
<defs>
</defs>
<path fill="#4C565C" d="M15.879,250.46H0v-9.331h42.52v9.331H26.637v46.657H15.879V250.46z"/>
<path fill="#4C565C" d="M49.77,241.129h34.835v9.331H60.527v13.536h22.198v9.333H60.527v14.454h24.078v9.334H49.77V241.129z
	 M61.636,231.8c4.014-2.439,7.943-4.879,11.355-7.485l4.014,6.22c-3.842,2.779-7,4.628-11.611,6.979L61.636,231.8z"/>
<path fill="#4C565C" d="M93.132,256.511c0-10.252,6.062-16.221,20.235-16.221c5.293,0,10.758,0.673,15.456,1.849l-1.196,9.163
	c-4.611-0.842-9.991-1.43-13.918-1.43c-7.429,0-9.82,2.521-9.82,8.493v21.521c0,5.968,2.391,8.487,9.82,8.487
	c3.927,0,9.307-0.591,13.918-1.43l1.196,9.165c-4.698,1.177-10.163,1.847-15.456,1.847c-14.173,0-20.235-5.967-20.235-16.221
	V256.511z"/>
<path fill="#4C565C" d="M148.285,254.663v42.455h-10.502v-55.988h14.345l21.6,42.539v-42.539h10.502v55.988h-14.345L148.285,254.663
	z"/>
<path fill="#4C565C" d="M206.93,297.118h-10.758v-55.988h10.758V297.118z"/>
<path fill="#4C565C" d="M217.595,256.511c0-10.252,6.062-16.221,20.236-16.221c5.293,0,10.758,0.673,15.457,1.849l-1.196,9.163
	c-4.611-0.842-9.991-1.43-13.918-1.43c-7.429,0-9.82,2.521-9.82,8.493v21.521c0,5.968,2.391,8.487,9.82,8.487
	c3.927,0,9.307-0.591,13.918-1.43l1.196,9.165c-4.699,1.177-10.164,1.847-15.457,1.847c-14.174,0-20.236-5.967-20.236-16.221
	V256.511z"/>
<path fill="#4C565C" d="M302.716,280.726c0,9.331-5.464,17.23-21.514,17.23c-16.054,0-21.519-7.899-21.519-17.23v-23.202
	c0-9.331,5.464-17.233,21.519-17.233c16.05,0,21.514,7.902,21.514,17.233V280.726z M270.441,280.137c0,5.296,2.734,8.49,10.761,8.49
	c8.023,0,10.757-3.194,10.757-8.49V258.11c0-5.292-2.734-8.49-10.757-8.49c-8.027,0-10.761,3.198-10.761,8.49V280.137z"/>
<path fill="#4C565C" d="M336.771,292.663h25.613v4.455h-30.65v-55.988h5.037V292.663z"/>
<path fill="#4C565C" d="M378.856,297.118h-5.038v-55.988h5.038V297.118z"/>
<path fill="#4C565C" d="M408.906,297.957c-4.953,0-11.184-0.839-16.05-2.69l0.937-4.035c5.125,1.516,10.332,2.271,15.285,2.271
	c9.732,0,12.379-2.856,12.379-10.001c0-8.659-0.084-9.587-12.722-12.443c-13.745-3.11-15.282-5.55-15.282-16.812
	c0-9.162,3.414-13.954,17.674-13.954c4.951,0,10.845,0.839,14.686,1.933l-0.596,4.202c-4.185-0.921-9.479-1.68-13.919-1.68
	c-11.271,0-12.81,2.692-12.81,9.665c0,9.08,0.259,9.501,12.213,12.442c14.941,3.7,15.795,5.802,15.795,16.394
	C426.496,292.412,423.335,297.957,408.906,297.957z"/>
<path fill="#4C565C" d="M440.06,297.118v-55.988h21.346c7.685,0,12.211,3.616,12.211,11.014v6.724c0,4.455-1.88,7.4-6.49,9.08
	c4.441,0.589,8.283,4.202,8.283,10.424v7.315c0,7.731-5.723,11.432-13.065,11.432H440.06z M468.579,251.471
	c0-3.869-2.22-5.967-7.086-5.967h-16.394v20.763h14.684c6.233,0,8.796-3.197,8.796-7.651V251.471z M470.372,278.539
	c0-4.709-2.817-7.901-9.394-7.901h-15.879v22.109h17.333c5.377,0,7.939-2.605,7.939-7.061V278.539z"/>
<path fill="#4C565C" d="M505.881,297.957c-14.6,0-19.893-7.056-19.893-16.643v-24.381c0-9.58,5.293-16.643,19.893-16.643
	c14.599,0,19.893,7.062,19.893,16.643v24.381C525.774,290.901,520.48,297.957,505.881,297.957z M520.737,281.145v-24.043
	c0-7.984-3.926-12.356-14.855-12.356c-10.929,0-14.855,4.372-14.855,12.356v24.043c0,7.988,3.927,12.356,14.855,12.356
	C516.811,293.501,520.737,289.133,520.737,281.145z"/>
<path fill="#4C565C" d="M570.508,282.404h-26.47l-5.293,14.714h-4.951l19.809-55.988h7.427l19.809,55.988h-4.951L570.508,282.404z
	 M545.575,278.12h23.397l-11.697-34.132L545.575,278.12z"/>
<path fill-rule="evenodd" clip-rule="evenodd" fill="#009FE3" d="M290.435,192.516c0,0-79.438-38.967-79.438-111.72
	c0-49.105,0-80.796,0-80.796h159.177c0,0,0,31.691,0,80.796C370.173,153.549,290.435,192.516,290.435,192.516z"/>
<polygon fill="#FFFFFF" points="332.956,60.784 326.328,60.784 326.328,110.615 311.984,110.615 311.982,60.784 305.372,60.784 
	305.372,50.794 332.956,50.794 "/>
<polygon fill="#FFFFFF" points="268.925,110.581 254.587,110.581 254.604,50.794 268.903,50.794 "/>
<path fill="#FFFFFF" d="M304.763,16.917c-11.864,0-21.479,6.15-21.479,18.016l-0.005,91.575c0,10.05,0,15.034-7.137,15.034
	c-6.639,0-7.222-4.969-7.222-12.288h-0.003c0-3.952-3.208-7.16-7.163-7.16c-3.954,0-7.162,3.208-7.162,7.16h-0.013
	c0,10.084,9.702,15.268,21.562,15.268c11.862,0,21.48-6.147,21.48-18.014l0.005-91.575c0-10.051-0.003-15.034,7.136-15.034
	c6.64,0,7.221,4.966,7.221,12.286h0.008c0,3.955,3.205,7.158,7.158,7.158c3.955,0,7.162-3.203,7.162-7.158h0.014
	C326.326,22.101,316.625,16.917,304.763,16.917z"/>
</svg>
